<svg xmlns="http://www.w3.org/2000/svg" viewBox="0 0 566.01 146.92"><defs><style>.cls-1{fill:#126b00;}.cls-2,.cls-4{fill:none;}.cls-3,.cls-4{stroke:#000;stroke-miterlimit:10;}.cls-3{stroke-width:2px;}.cls-4{stroke-width:8px;}</style></defs><g id="Layer_1" data-name="Layer 1"><path d="M208.33,491.32a13.67,13.67,0,0,0,6.22-1.3,13.43,13.43,0,0,0,4.32-3.33,13.2,13.2,0,0,0,2.58-4.71,17.79,17.79,0,0,0,.84-5.39V449.27a41.09,41.09,0,0,1,1.36-11.08,17.91,17.91,0,0,1,4.71-8.12,21.78,21.78,0,0,1,8.88-5A46,46,0,0,1,251,423.32h.61V434.4q-8.66,0-12.37,3.11t-3.72,11.92V472.8q0,10-2.65,15.48a20.21,20.21,0,0,1-7.52,8.5,20.21,20.21,0,0,1,7.52,8.5q2.66,5.46,2.65,15.48v23.37q0,8.8,3.72,11.92t12.37,3.11v11.08H251a48.35,48.35,0,0,1-13.73-1.67,20.82,20.82,0,0,1-8.88-5,18.39,18.39,0,0,1-4.71-8.2,41,41,0,0,1-1.36-11.08V517a17.72,17.72,0,0,0-.84-5.38,13.2,13.2,0,0,0-2.58-4.71,13.6,13.6,0,0,0-4.32-3.34,13.8,13.8,0,0,0-6.22-1.29Z" transform="translate(-208.33 -423.32)"/><path d="M393.5,449a9.05,9.05,0,0,1-6.45-2.5,9.91,9.91,0,0,1,0-13.51,9.54,9.54,0,0,1,12.9,0,9.91,9.91,0,0,1,0,13.51A9.05,9.05,0,0,1,393.5,449Zm7.13,93.19H386.52V463.24h14.11Z" transform="translate(-208.33 -423.32)"/><path d="M432.84,465.51c3.24-.8,7.53-1.67,12.9-2.58a111.68,111.68,0,0,1,18.52-1.36q9.4,0,15.63,2.65a24.51,24.51,0,0,1,9.94,7.44,28.75,28.75,0,0,1,5.23,11.46,66,66,0,0,1,1.52,14.72v44.32H482.47V500.88a67.18,67.18,0,0,0-1-12.45,21.09,21.09,0,0,0-3.26-8.35,12.92,12.92,0,0,0-6.07-4.62,26.47,26.47,0,0,0-9.41-1.45q-2.28,0-4.71.15c-1.62.11-3.16.23-4.63.38s-2.78.33-3.94.54l-2.51.45v66.63H432.84Z" transform="translate(-208.33 -423.32)"/><path class="cls-1" d="M601.59,542.16q-2.58-6.82-4.85-13.43T592,515.29H544.37l-9.56,26.87H519.48q6.07-16.7,11.39-30.89t10.39-26.94q5.09-12.75,10.1-24.36t10.47-23h13.51q5.46,11.38,10.47,23t10.09,24.36q5.08,12.75,10.4,26.94t11.38,30.89Zm-13.81-39q-4.86-13.2-9.64-25.57t-9.94-23.75q-5.31,11.37-10.09,23.75t-9.49,25.57Z" transform="translate(-208.33 -423.32)"/><path class="cls-1" d="M682.32,544.43a53.87,53.87,0,0,1-20.19-3.64,43,43,0,0,1-15.63-10.62,47.77,47.77,0,0,1-10.09-17.23,71.07,71.07,0,0,1-3.57-23.45,63.9,63.9,0,0,1,4-23.45,50.78,50.78,0,0,1,10.85-17.22,46.08,46.08,0,0,1,15.94-10.63,52,52,0,0,1,19.43-3.64,69.72,69.72,0,0,1,11.76.91,72.34,72.34,0,0,1,9.11,2.13,43.62,43.62,0,0,1,6.3,2.43,34.38,34.38,0,0,1,3.33,1.82L709.33,454a23.36,23.36,0,0,0-3.94-2q-2.58-1.06-5.84-2.13a51.84,51.84,0,0,0-7.14-1.74,44.38,44.38,0,0,0-7.81-.69,37.58,37.58,0,0,0-15,2.89,31,31,0,0,0-11.38,8.34A37.72,37.72,0,0,0,651,472a57.35,57.35,0,0,0-2.51,17.53,62.45,62.45,0,0,0,2.21,17.15,37.36,37.36,0,0,0,6.6,13.28,29.52,29.52,0,0,0,11,8.58,36.61,36.61,0,0,0,15.4,3,56.38,56.38,0,0,0,16.85-2.12,75.5,75.5,0,0,0,10-3.79l3.79,12.14a20.56,20.56,0,0,1-3.79,1.89,50.73,50.73,0,0,1-6.83,2.2,85.62,85.62,0,0,1-9.56,1.83A87.26,87.26,0,0,1,682.32,544.43Z" transform="translate(-208.33 -423.32)"/><path d="M774.34,502.24a13.77,13.77,0,0,0-6.22,1.29,13.53,13.53,0,0,0-4.33,3.34,13.36,13.36,0,0,0-2.58,4.71,17.71,17.71,0,0,0-.83,5.38v27.32A41,41,0,0,1,759,555.36a18.39,18.39,0,0,1-4.71,8.2,20.82,20.82,0,0,1-8.88,5,48.35,48.35,0,0,1-13.73,1.67h-.61V559.16q8.65,0,12.37-3.11t3.72-11.92V520.76q0-10,2.66-15.48a20.13,20.13,0,0,1,7.51-8.5,20.13,20.13,0,0,1-7.51-8.5q-2.66-5.46-2.66-15.48V449.43q0-8.81-3.72-11.92t-12.37-3.11V423.32h.61a46,46,0,0,1,13.73,1.75,21.78,21.78,0,0,1,8.88,5,17.91,17.91,0,0,1,4.71,8.12,41.07,41.07,0,0,1,1.37,11.08v27.32a17.77,17.77,0,0,0,.83,5.39,13.17,13.17,0,0,0,6.91,8,13.64,13.64,0,0,0,6.22,1.3Z" transform="translate(-208.33 -423.32)"/><path d="M316.06,537.34" transform="translate(-208.33 -423.32)"/><path d="M269.49,479" transform="translate(-208.33 -423.32)"/><polygon points="91.36 102.37 65.85 70.4 76.54 66.04 101.54 97.38 91.36 102.37"/><rect x="296.87" y="476.81" width="82.12" height="13.2" transform="translate(-453.96 145.68) rotate(-63.39)"/><circle class="cls-2" cx="105.31" cy="108.86" r="15.39"/><circle class="cls-2" cx="66.26" cy="62.03" r="9.06"/><path class="cls-3" d="M274.58,496.39a11,11,0,1,1,11-11A11.06,11.06,0,0,1,274.58,496.39Zm0-18.12a7.08,7.08,0,1,0,7.09,7.08A7.09,7.09,0,0,0,274.58,478.27Z" transform="translate(-208.33 -423.32)"/><circle class="cls-2" cx="150.8" cy="18.17" r="9.06"/><path class="cls-3" d="M359.13,452.53a11,11,0,1,1,11-11A11,11,0,0,1,359.13,452.53Zm0-18.12a7.08,7.08,0,1,0,7.08,7.08A7.09,7.09,0,0,0,359.13,434.41Z" transform="translate(-208.33 -423.32)"/><circle class="cls-4" cx="105.31" cy="108.86" r="15.39"/></g></svg>